<svg width="103" height="257" viewBox="0 0 103 257" fill="none"
    xmlns="http://www.w3.org/2000/svg">
    <path d="M127.12 241.39C136.44 228.68 141.33 212.31 138.34 196.84C132.58 167.13 100.02 145.96 100.46 115.7C100.74 96.28 115.13 78.23 111.85 59.09C108.16 37.52 82.93 21.6 86.46 0C71.86 15.83 66.88 39.91 74 60.23C77.81 71.09 84.82 81.15 85.28 92.64C85.94 109.09 72.94 124.53 76.19 140.67C79.51 157.16 98.4 166.85 102.23 183.23C104.94 194.83 99.39 206.63 98.3 218.49C97.21 230.36 104.88 245.37 116.61 243.31L127.12 241.38V241.39Z" fill="#143736"/>
    <g style="mix-blend-mode:screen" opacity="0.4">
        <path d="M81.27 6.56995C80.52 25.1199 86.68 42.6099 91.42 60.5099C93.61 68.7899 95.57 77.45 95.46 86.02C95.34 95.2299 93.54 104.41 92.84 113.59C92.16 122.56 92.3 131.76 94.33 140.56C96.48 149.83 100.41 158.38 104.84 166.74C112.74 181.63 121 196.3 119.23 213.2C118.21 222.9 113.72 232.62 109.08 242.21C101.76 238.5 97.46 227.59 98.29 218.51C99.38 206.64 104.93 194.85 102.22 183.25C98.39 166.87 79.5 157.18 76.18 140.69C72.93 124.55 85.93 109.11 85.27 92.66C84.81 81.16 77.8 71.0999 73.99 60.2499C67.79 42.5599 70.76 22.0399 81.26 6.56995H81.27Z" fill="#003B4B"/>
    </g>
    <g style="mix-blend-mode:screen" opacity="0.4">
        <path d="M79.43 9.44995C77.18 18.53 76.48 27.79 77.33 37.26C78.21 47.04 80.93 56.51 83.66 65.9C86.24 74.78 88.8 83.6899 89.99 92.88C91.1 101.45 90.24 109.8 88.8 118.39C87.34 127.12 86.06 135.68 87.2 144.56C88.33 153.4 91.91 161.84 96.59 169.35C101 176.42 106.2 182.74 108.86 191.34C109.68 193.98 110.1 197.69 109.41 200.18C108.27 204.29 106.31 208.14 104.71 212.08C102.26 218.14 100.84 224.57 100.14 231.15C98.6 227.12 97.91 222.62 98.29 218.5C99.38 206.63 104.93 194.84 102.22 183.24C98.39 166.86 79.5 157.17 76.18 140.68C72.93 124.54 85.93 109.1 85.27 92.6499C84.81 81.1499 77.8 71.09 73.99 60.24C68.17 43.63 70.43 24.52 79.42 9.44995H79.43Z" fill="#003B4B"/>
    </g>
    <g opacity="0.21" style="mix-blend-mode:overlay">
        <path d="M79.9101 135.85C80.2701 137.89 82.2201 139.25 84.2601 138.88C86.3001 138.52 87.6601 136.57 87.2901 134.53C86.9301 132.49 84.9801 131.13 82.9401 131.5C80.9001 131.86 79.5401 133.81 79.9101 135.85Z" fill="white"/>
    </g>
    <g opacity="0.21" style="mix-blend-mode:overlay">
        <path d="M96.23 65.6399C96.59 67.6799 98.54 69.04 100.58 68.67C102.62 68.31 103.98 66.3599 103.61 64.3199C103.25 62.2799 101.3 60.9199 99.26 61.2899C97.22 61.6499 95.86 63.5999 96.23 65.6399Z" fill="white"/>
    </g>
    <g opacity="0.21" style="mix-blend-mode:overlay">
        <path d="M96.13 51.2101C96.39 52.6401 97.75 53.6001 99.19 53.3401C100.62 53.0801 101.58 51.7201 101.32 50.2801C101.06 48.8501 99.7 47.8901 98.26 48.1501C96.83 48.4101 95.87 49.7701 96.13 51.2101Z" fill="white"/>
    </g>
    <path d="M116.36 250.34C121.46 235.43 121.25 218.35 113.78 204.48C99.42 177.84 62.03 167.35 53.42 138.34C47.89 119.72 56.25 98.2 47.41 80.9099C37.45 61.4099 8.62003 53.7399 5.55003 32.0699C-3.66997 51.5399 -1.23997 75.9999 11.63 93.2699C18.5 102.5 28.19 110.01 32.06 120.85C37.6 136.36 29.8 154.97 37.71 169.4C45.8 184.15 66.72 187.76 75.26 202.25C81.31 212.51 79.53 225.43 82.03 237.08C84.53 248.73 96.32 260.77 106.91 255.31L116.37 250.33L116.36 250.34Z" fill="#143736"/>
    <g style="mix-blend-mode:screen" opacity="0.4">
        <path d="M2.55006 39.87C7.37006 57.8 18.4701 72.65 28.3301 88.32C32.8901 95.57 37.3401 103.25 39.7901 111.47C42.4201 120.3 43.4401 129.59 45.5101 138.57C47.5401 147.34 50.4101 156.07 54.9801 163.86C59.7901 172.07 66.0901 179.05 72.8301 185.71C84.8101 197.56 97.0701 209.11 100.42 225.77C102.34 235.34 100.95 245.95 99.3901 256.48C91.3001 255.13 83.9401 245.99 82.0301 237.08C79.5301 225.43 81.3101 212.52 75.2601 202.25C66.7201 187.76 45.8001 184.14 37.7101 169.4C29.7901 154.96 37.5901 136.35 32.0601 120.85C28.1901 110.01 18.5001 102.5 11.6301 93.27C0.43006 78.24 -2.85994 57.76 2.55006 39.87Z" fill="#003B4B"/>
    </g>
    <g style="mix-blend-mode:screen" opacity="0.4">
        <path d="M1.66005 43.1799C2.22005 52.5199 4.32005 61.5599 7.95005 70.3499C11.7001 79.4299 17.1301 87.6499 22.5301 95.7999C27.6401 103.5 32.75 111.25 36.62 119.66C40.24 127.51 41.9001 135.74 43.09 144.36C44.3 153.13 45.64 161.68 49.37 169.81C53.09 177.91 59.0101 184.9 65.7301 190.67C72.0401 196.1 78.8901 200.59 84.0001 208C85.5701 210.28 87.0801 213.69 87.1601 216.27C87.2901 220.53 86.5701 224.79 86.2301 229.03C85.7001 235.54 86.26 242.11 87.5601 248.6C84.8901 245.21 82.8901 241.12 82.0201 237.08C79.5201 225.43 81.3001 212.52 75.2501 202.25C66.7101 187.76 45.7901 184.14 37.7001 169.4C29.7801 154.96 37.58 136.35 32.05 120.85C28.18 110.01 18.49 102.5 11.62 93.2699C1.11005 79.1599 -2.42995 60.2499 1.66005 43.1799Z" fill="#003B4B"/>
    </g>
    <g opacity="0.21" style="mix-blend-mode:overlay">
        <path d="M39.82 163.68C40.78 165.52 43.04 166.23 44.88 165.28C46.72 164.32 47.43 162.06 46.48 160.22C45.52 158.38 43.26 157.67 41.42 158.62C39.58 159.58 38.87 161.84 39.82 163.68Z" fill="white"/>
    </g>
    <g opacity="0.21" style="mix-blend-mode:overlay">
        <path d="M34.45 91.7899C35.41 93.6299 37.67 94.3399 39.51 93.3899C41.35 92.4299 42.06 90.1699 41.11 88.3299C40.15 86.4899 37.89 85.7799 36.05 86.7299C34.21 87.6899 33.5 89.9499 34.45 91.7899Z" fill="white"/>
    </g>
    <g opacity="0.21" style="mix-blend-mode:overlay">
        <path d="M30.05 78.05C30.72 79.34 32.31 79.84 33.6 79.17C34.89 78.5 35.3901 76.91 34.7201 75.62C34.0501 74.33 32.46 73.83 31.17 74.5C29.88 75.17 29.38 76.76 30.05 78.05Z" fill="white"/>
    </g>
    <g opacity="0.21" style="mix-blend-mode:overlay">
        <path d="M89.1801 238.65C90.2101 240.63 92.6401 241.39 94.6201 240.37C96.6001 239.34 97.3601 236.91 96.3401 234.93C95.3101 232.95 92.8801 232.19 90.9001 233.21C88.9201 234.24 88.1601 236.67 89.1801 238.65Z" fill="white"/>
    </g>
    <g opacity="0.21" style="mix-blend-mode:overlay">
        <path d="M89.7001 195.68C90.7301 197.66 93.1601 198.42 95.1401 197.4C97.1201 196.37 97.8801 193.94 96.8601 191.96C95.8301 189.98 93.4001 189.22 91.4201 190.24C89.4401 191.27 88.6801 193.7 89.7001 195.68Z" fill="white"/>
    </g>
    <g opacity="0.21" style="mix-blend-mode:overlay">
        <path d="M103.2 207.02C103.51 207.62 104.24 207.85 104.84 207.54C105.44 207.23 105.67 206.5 105.36 205.9C105.05 205.3 104.32 205.07 103.72 205.38C103.12 205.69 102.89 206.42 103.2 207.02Z" fill="white"/>
    </g>
    <path d="M122.68 245.34C128.37 233.93 130.04 220.2 125.53 208.28C116.87 185.37 88.0101 172.95 84.2101 148.76C81.7801 133.23 90.7801 116.87 85.5501 102.05C79.6501 85.35 57.3601 76.11 57.2201 58.4C47.7401 73.02 47.0601 92.91 55.5301 108.14C60.0501 116.28 67.0201 123.34 68.9601 132.45C71.7401 145.48 63.4801 159.57 68.2901 172C73.2001 184.69 89.5801 189.84 94.8801 202.37C98.6301 211.25 95.8201 221.42 96.5701 231.03C97.3301 240.64 105.49 251.57 114.57 248.32L122.69 245.34H122.68Z" fill="#166988"/>
    <g style="mix-blend-mode:screen" opacity="0.4">
        <path d="M53.9701 64.3301C55.9101 79.2301 63.2201 92.3301 69.4501 105.96C72.3301 112.26 75.0801 118.9 76.1601 125.75C77.3301 133.11 77.1401 140.68 77.8401 148.1C78.5201 155.35 79.9001 162.67 82.7201 169.4C85.7001 176.5 90.0001 182.78 94.6901 188.84C103.03 199.63 111.62 210.21 112.52 223.93C113.04 231.81 110.78 240.17 108.4 248.45C102.05 246.5 97.1301 238.38 96.5501 231.02C95.7901 221.41 98.6101 211.24 94.8601 202.36C89.5601 189.82 73.1801 184.68 68.2701 171.99C63.4701 159.56 71.7201 145.47 68.9401 132.44C67.0001 123.33 60.0301 116.27 55.5101 108.13C48.1401 94.8701 47.7001 78.1001 53.9601 64.3301H53.9701Z" fill="#003B4B"/>
    </g>
    <g style="mix-blend-mode:screen" opacity="0.4">
        <path d="M52.9001 66.89C52.3501 74.44 53.0601 81.92 55.0301 89.36C57.0701 97.04 60.5401 104.22 64.0001 111.34C67.2701 118.07 70.5401 124.82 72.7401 131.99C74.8001 138.67 75.2501 145.45 75.2801 152.5C75.3101 159.67 75.4701 166.66 77.5901 173.59C79.7001 180.49 83.7101 186.72 88.4701 192.08C92.9501 197.12 97.9601 201.44 101.27 207.94C102.28 209.93 103.13 212.84 102.92 214.91C102.57 218.34 101.53 221.68 100.8 225.04C99.6801 230.21 99.4201 235.53 99.7701 240.88C97.9901 237.87 96.8201 234.38 96.5601 231.04C95.8001 221.43 98.6201 211.26 94.8701 202.38C89.5701 189.84 73.1901 184.7 68.2801 172.01C63.4801 159.58 71.7301 145.49 68.9501 132.46C67.0101 123.35 60.0401 116.29 55.5201 108.15C48.6001 95.7 47.7901 80.15 52.9001 66.9V66.89Z" fill="#003B4B"/>
    </g>
    <g opacity="0.21" style="mix-blend-mode:overlay">
        <path d="M70.5801 167.63C71.1501 169.21 72.8901 170.02 74.4701 169.45C76.0501 168.88 76.8601 167.14 76.2901 165.56C75.7201 163.98 73.9801 163.17 72.4001 163.74C70.8201 164.31 70.0101 166.05 70.5801 167.63Z" fill="white"/>
    </g>
    <g opacity="0.21" style="mix-blend-mode:overlay">
        <path d="M73.9901 109.4C74.5601 110.98 76.3001 111.79 77.8801 111.22C79.4601 110.65 80.2701 108.91 79.7001 107.33C79.1301 105.75 77.3901 104.94 75.8101 105.51C74.2301 106.08 73.4201 107.82 73.9901 109.4Z" fill="white"/>
    </g>
    <g opacity="0.21" style="mix-blend-mode:overlay">
        <path d="M71.93 97.9C72.33 99.01 73.55 99.58 74.66 99.18C75.77 98.78 76.34 97.56 75.94 96.45C75.54 95.34 74.32 94.77 73.21 95.17C72.1 95.57 71.53 96.79 71.93 97.9Z" fill="white"/>
    </g>
    <g opacity="0.21" style="mix-blend-mode:overlay">
        <path d="M102.13 233.06C102.74 234.75 104.61 235.63 106.31 235.02C108 234.41 108.88 232.54 108.27 230.84C107.66 229.15 105.79 228.27 104.09 228.88C102.4 229.49 101.52 231.36 102.13 233.06Z" fill="white"/>
    </g>
</svg>
